<?xml version="1.0" standalone="no"?>
<!DOCTYPE svg PUBLIC "-//W3C//DTD SVG 20010904//EN"
 "http://www.w3.org/TR/2001/REC-SVG-20010904/DTD/svg10.dtd">
<svg version="1.0" xmlns="http://www.w3.org/2000/svg"
 width="1001.000000pt" height="251.000000pt" viewBox="0 0 1001.000000 251.000000"
 preserveAspectRatio="xMidYMid meet">

<g transform="translate(0.000000,251.000000) scale(0.100000,-0.100000)"
fill="#000000" stroke="none">
<path d="M8944 2255 c-3 -8 -10 -13 -14 -10 -4 3 -24 -2 -44 -10 -20 -8 -36
-13 -36 -11 0 3 -18 -1 -39 -9 -22 -7 -42 -11 -45 -8 -3 4 -6 2 -6 -3 0 -5 -9
-11 -20 -12 -11 -1 -29 -3 -40 -4 -11 -1 -20 -7 -20 -12 0 -5 -3 -7 -6 -3 -3
3 -30 -3 -59 -13 -29 -10 -56 -16 -59 -13 -3 4 -6 2 -6 -4 0 -7 -15 -8 -42 -3
-47 9 -49 9 -52 -12 -1 -8 -14 -27 -29 -43 -15 -17 -27 -35 -27 -42 0 -6 -9
-15 -20 -18 -11 -3 -20 -12 -20 -20 0 -7 -7 -15 -15 -19 -8 -3 -15 -12 -15
-21 0 -8 -7 -15 -15 -15 -9 0 -19 -8 -22 -17 -4 -10 -21 -32 -37 -50 -17 -17
-42 -45 -56 -62 -14 -17 -30 -29 -36 -26 -17 5 -53 -37 -52 -60 1 -29 -11 -82
-26 -119 -7 -17 -11 -37 -9 -43 3 -7 0 -13 -5 -13 -6 0 -9 -11 -7 -25 1 -14
-1 -25 -5 -25 -4 0 -11 -19 -15 -42 -8 -45 -11 -56 -15 -60 -2 -4 -6 -22 -15
-68 -3 -19 -10 -36 -16 -38 -11 -4 -12 -122 -1 -122 4 0 8 -10 9 -22 1 -11 8
-25 15 -29 7 -5 10 -9 6 -9 -5 0 1 -23 12 -52 10 -28 17 -55 14 -60 -3 -4 0
-8 6 -8 6 0 8 -4 5 -10 -3 -5 -1 -10 5 -10 7 0 10 -7 6 -15 -3 -8 0 -15 6 -15
6 0 8 -3 5 -7 -4 -3 -2 -12 4 -20 6 -7 8 -13 3 -13 -5 0 -3 -4 4 -9 7 -4 14
-18 15 -29 1 -12 4 -22 8 -22 4 0 6 -23 6 -51 -2 -43 2 -54 21 -68 13 -9 41
-33 63 -54 22 -20 45 -37 50 -37 5 0 9 -7 9 -16 0 -8 5 -12 10 -9 6 3 10 -2
10 -11 0 -10 3 -15 6 -11 3 3 26 -13 50 -36 82 -79 126 -117 135 -117 5 0 9
-6 9 -14 0 -8 7 -16 15 -20 8 -3 15 -15 15 -26 0 -25 15 -26 42 0 17 15 24 17
30 8 4 -7 8 -9 8 -4 0 5 7 3 15 -4 8 -7 15 -10 15 -7 0 4 19 -1 43 -9 23 -9
47 -17 52 -18 6 -1 16 -5 23 -9 6 -5 12 -6 12 -2 0 3 16 -2 36 -10 20 -8 40
-12 45 -9 5 3 9 0 9 -6 0 -7 6 -10 13 -7 6 2 27 -2 45 -10 17 -7 32 -10 32 -7
0 4 6 2 13 -4 20 -17 108 -7 180 21 37 15 67 24 67 22 0 -3 10 0 23 7 12 6 31
13 42 15 10 2 23 9 27 16 4 6 8 9 8 5 0 -4 30 4 68 18 42 17 84 26 114 25 38
-2 47 2 52 17 4 11 20 34 36 51 17 17 28 31 24 31 -3 0 13 17 35 39 22 21 37
41 34 45 -4 3 1 6 10 6 10 0 17 4 17 10 0 5 11 20 25 34 24 24 25 31 25 133
l0 108 -60 27 c-33 15 -60 33 -60 40 0 10 3 9 9 -1 5 -7 13 -11 19 -7 6 3 12
1 14 -5 2 -7 11 -7 30 1 25 12 36 37 44 103 4 32 -22 91 -36 82 -5 -3 -18 -2
-27 4 -10 5 -29 11 -43 12 -14 2 -28 7 -31 11 -3 5 -17 9 -32 10 -15 1 -27 6
-27 11 0 5 -6 7 -14 4 -7 -3 -18 -1 -22 3 -5 5 -21 11 -34 14 -14 2 -25 5 -25
6 0 1 -11 4 -25 6 -35 6 -48 23 -50 64 -3 49 -1 60 8 58 4 -1 16 3 28 9 11 6
33 13 50 15 16 2 32 7 35 11 3 4 17 9 30 10 13 0 26 5 29 9 3 4 17 10 30 12
14 2 26 5 28 7 1 1 7 3 12 4 6 1 12 4 15 5 3 1 9 3 14 4 5 0 13 4 16 8 4 4 16
3 26 -3 16 -8 17 -14 9 -30 -6 -11 -15 -17 -20 -14 -5 3 -11 1 -14 -4 -4 -5
-2 -12 4 -16 6 -4 8 -11 5 -16 -4 -5 1 -12 10 -15 13 -5 14 -9 4 -15 -10 -6
-10 -11 0 -23 17 -20 51 -21 51 -1 0 8 -7 15 -16 15 -9 0 -14 6 -11 13 2 6 10
11 16 10 7 -2 11 25 11 85 0 83 -2 89 -23 99 -17 8 -28 7 -42 -3 -11 -8 -25
-12 -32 -10 -7 3 -15 1 -18 -5 -4 -5 -11 -7 -16 -4 -5 4 -9 1 -9 -5 0 -7 -7
-10 -15 -7 -8 4 -17 2 -20 -4 -4 -5 -11 -7 -16 -4 -5 4 -9 1 -9 -5 0 -7 -7
-10 -15 -6 -8 3 -15 2 -15 -3 0 -5 -12 -8 -26 -8 -15 0 -29 -5 -33 -10 -3 -5
-17 -10 -30 -10 -13 -1 -27 -6 -30 -10 -12 -17 -55 -5 -56 15 -1 4 -9 22 -19
40 -18 35 -14 92 6 92 5 0 23 14 38 30 15 17 31 30 34 30 9 0 56 47 56 55 0
10 28 35 39 35 6 0 11 5 11 10 0 6 9 10 20 10 13 0 20 -7 20 -20 0 -11 -4 -20
-10 -20 -5 0 -10 -5 -10 -11 0 -14 25 -39 39 -39 6 0 19 -5 29 -11 15 -9 30
-4 84 32 58 38 67 48 67 75 l1 30 -47 -44 c-50 -46 -101 -77 -111 -68 -3 3 0
6 6 6 7 0 12 7 12 15 0 8 7 15 15 15 10 0 15 10 15 30 0 20 -5 30 -15 30 -8 0
-15 5 -15 10 0 25 -50 60 -85 60 -25 0 -44 -8 -60 -25 -14 -13 -25 -27 -25
-30 0 -8 -27 -35 -35 -35 -10 0 -55 -48 -55 -60 0 -5 -6 -10 -14 -10 -8 0 -18
-9 -21 -20 -3 -11 -12 -20 -18 -20 -7 0 -19 -8 -26 -19 -13 -18 -42 -18 -66
-1 -5 4 -22 10 -37 14 -23 5 -27 11 -24 34 6 42 17 82 25 82 3 0 7 10 8 23 5
48 8 62 16 68 5 4 10 18 10 33 1 14 5 26 9 26 4 0 5 7 2 15 -4 8 -1 15 5 15 6
0 8 6 5 14 -8 21 28 30 43 10 10 -14 10 -19 1 -25 -18 -12 -8 -17 44 -24 42
-6 48 -4 59 17 7 13 14 25 14 28 1 3 7 17 14 31 11 22 19 26 41 23 17 -3 34 1
43 11 20 19 33 19 41 0 3 -8 10 -15 16 -15 6 0 22 -11 36 -25 14 -14 29 -25
34 -25 5 0 20 -10 33 -22 13 -13 34 -30 46 -38 13 -8 29 -21 37 -27 20 -20 24
-16 23 20 0 28 -16 84 -18 65 -1 -5 -18 8 -38 27 -20 19 -41 35 -46 35 -7 0
-20 9 -52 38 -7 6 -18 12 -23 12 -6 0 -12 7 -16 15 -3 8 -12 15 -21 15 -8 0
-15 8 -15 18 0 27 -50 67 -85 68 -46 2 -100 14 -103 24 -2 5 -10 6 -18 3 -8
-3 -14 -1 -14 5 0 6 -11 9 -25 7 -14 -1 -25 1 -25 5 0 4 -19 11 -42 15 -45 8
-56 11 -60 15 -5 3 -42 12 -75 17 -18 3 -33 8 -33 12 0 3 -18 7 -40 9 -29 2
-42 -2 -46 -13z m146 -79 c0 4 7 1 15 -6 8 -7 15 -10 15 -7 0 4 18 0 40 -8 22
-8 40 -12 40 -9 0 2 10 -1 23 -8 12 -6 27 -13 32 -14 6 -1 26 -5 45 -9 19 -3
37 -9 40 -13 3 -4 16 -7 30 -7 18 0 26 -6 28 -23 2 -15 -2 -22 -13 -22 -9 0
-13 -4 -10 -10 3 -5 -4 -33 -16 -62 -25 -60 -45 -89 -29 -41 13 36 -2 78 -25
69 -8 -3 -15 -1 -17 4 -2 5 -14 11 -28 12 -14 2 -28 7 -31 11 -10 14 -79 -25
-80 -45 -2 -19 -5 -36 -9 -40 -1 -2 -3 -11 -5 -21 -2 -10 -7 -26 -11 -35 -10
-22 -9 -21 -18 -64 -5 -21 -11 -38 -15 -38 -4 0 -8 -11 -9 -26 -1 -14 -7 -34
-12 -45 -6 -11 -9 -23 -6 -28 3 -5 -1 -14 -9 -21 -8 -7 -15 -9 -15 -5 0 4 -7
2 -15 -5 -24 -20 -79 -29 -92 -15 -7 7 -10 15 -8 17 2 2 -2 25 -10 51 -8 26
-11 47 -8 47 3 0 0 7 -7 15 -7 8 -9 15 -4 15 4 0 3 5 -3 11 -6 6 -9 18 -6 25
3 8 0 14 -6 14 -6 0 -10 3 -9 8 1 4 -2 25 -7 47 -4 22 -7 46 -6 53 1 6 -3 12
-9 12 -8 0 -8 6 0 20 9 16 15 18 30 10 11 -6 19 -16 17 -22 -1 -6 4 -13 11
-15 6 -3 12 0 12 6 0 6 7 8 15 5 29 -11 45 15 42 69 -2 48 0 52 28 67 36 18
55 41 47 55 -15 24 -10 34 14 25 13 -5 24 -7 24 -4z m-150 -57 c0 -56 -1 -59
-20 -49 -11 6 -32 7 -47 3 -16 -4 -31 -7 -35 -8 -3 0 -9 -3 -13 -7 -4 -4 -12
-5 -19 -2 -19 7 -48 -58 -38 -87 5 -13 7 -30 5 -36 -3 -7 0 -13 6 -13 6 0 8
-7 5 -15 -4 -8 -1 -15 5 -15 6 0 8 -7 5 -15 -4 -8 -2 -15 3 -15 6 0 9 -13 8
-30 -1 -16 1 -30 5 -30 4 0 8 -12 8 -26 0 -15 4 -29 9 -33 4 -3 8 -18 8 -33
-1 -16 2 -28 5 -28 4 0 7 -15 8 -34 1 -32 0 -33 -31 -30 -26 3 -35 -1 -48 -22
-14 -24 -17 -24 -32 -10 -8 9 -18 16 -22 16 -8 0 -35 27 -35 35 0 4 -18 24
-40 45 -22 21 -40 43 -40 49 0 6 -5 11 -10 11 -17 0 -60 47 -60 65 0 8 9 15
20 15 11 0 20 -4 20 -10 0 -15 19 -12 36 4 20 21 18 89 -5 117 -31 40 -35 68
-14 87 12 10 19 29 19 47 -1 25 3 30 24 30 14 0 31 6 38 13 8 7 17 10 22 7 4
-3 24 2 44 10 20 9 41 13 46 10 6 -4 10 -1 10 6 0 7 3 10 6 6 3 -3 23 1 45 8
21 8 39 11 39 8 0 -4 4 -3 10 3 5 5 19 10 30 11 18 2 20 -4 20 -58z m-435
-101 c57 -83 84 -128 75 -128 -5 0 -10 5 -10 10 0 6 -13 10 -30 10 -16 0 -30
-4 -30 -10 0 -5 -5 -10 -11 -10 -14 0 -39 -25 -39 -39 0 -6 -4 -11 -10 -11 -5
0 -10 -17 -10 -38 0 -26 6 -42 20 -52 11 -8 20 -20 20 -27 0 -7 5 -13 10 -13
14 0 80 -66 80 -80 0 -5 5 -10 10 -10 14 0 60 -46 60 -59 0 -5 9 -13 20 -16
11 -3 20 -13 20 -21 0 -8 5 -14 10 -14 20 0 9 -29 -12 -32 -17 -2 -25 -13 -32
-40 -8 -32 -13 -37 -31 -32 -12 3 -28 6 -36 8 -8 2 -27 8 -42 15 -16 6 -33 9
-38 5 -5 -3 -9 0 -9 6 0 6 -4 9 -9 5 -5 -3 -13 0 -16 6 -4 5 -13 8 -21 5 -8
-3 -14 -1 -14 5 0 6 -4 8 -9 4 -5 -3 -12 -1 -16 4 -3 6 -12 8 -20 4 -8 -3 -15
0 -15 7 0 6 -4 9 -9 5 -5 -3 -12 -1 -16 4 -3 6 -12 8 -19 5 -22 -8 -30 29 -10
43 14 10 19 10 25 1 12 -19 20 -5 24 40 4 44 -2 52 -58 82 -22 12 -32 25 -33
41 -1 37 -14 58 -32 53 -15 -5 -15 -4 -1 8 8 7 18 21 22 31 3 9 11 17 17 17 5
0 10 5 10 11 0 6 13 23 30 39 16 15 26 30 23 34 -3 3 0 6 8 6 8 0 21 10 29 21
8 12 32 39 53 61 20 22 37 44 37 49 0 17 19 9 35 -13z m-301 -351 c-1 -12 6
-17 24 -17 22 0 112 -36 112 -45 0 -6 -35 0 -41 8 -9 13 -60 -15 -55 -29 3 -8
1 -16 -5 -19 -5 -4 -7 -11 -4 -16 4 -5 1 -9 -5 -9 -7 0 -10 -6 -7 -14 3 -7 1
-18 -4 -23 -11 -11 26 -73 46 -74 18 -2 25 -4 47 -13 9 -4 25 -9 35 -11 10 -2
19 -4 21 -5 1 -2 7 -4 12 -5 6 -1 12 -4 15 -5 3 -1 10 -4 15 -5 6 -1 12 -4 15
-5 3 -1 10 -4 15 -5 6 -1 11 -3 13 -5 1 -1 15 -4 32 -6 16 -3 32 -8 35 -12 3
-4 16 -9 30 -10 14 -2 27 -8 28 -13 2 -5 7 -7 12 -4 5 3 15 -1 23 -10 11 -11
13 -24 7 -50 -9 -39 -37 -78 -51 -70 -4 3 -10 1 -14 -4 -3 -6 -12 -8 -20 -4
-8 3 -15 1 -15 -4 0 -5 -8 -9 -17 -10 -56 -5 -73 -9 -73 -17 0 -4 -7 -6 -15
-2 -8 3 -15 2 -15 -2 0 -4 -10 -8 -23 -9 -48 -5 -62 -8 -68 -16 -9 -12 -39 3
-39 19 0 8 12 19 26 24 20 8 24 13 15 24 -6 7 -8 16 -4 19 3 4 1 7 -5 7 -6 0
-9 6 -6 13 3 8 -1 19 -9 26 -15 12 -108 18 -125 8 -5 -4 -17 2 -27 13 -10 11
-14 20 -9 20 5 1 -4 8 -19 16 -21 11 -27 20 -22 32 4 9 9 26 11 37 13 74 25
120 32 124 4 4 7 16 6 29 -1 12 2 22 5 22 4 0 8 9 9 20 1 11 3 29 4 40 1 11 6
20 10 20 4 0 7 3 7 8 -5 27 3 43 19 40 9 -2 16 -11 16 -21z m833 -67 c2 -17
-4 -20 -42 -20 -51 0 -69 17 -28 26 15 3 33 7 38 9 23 8 31 4 32 -15z m-222
-32 c0 -18 25 -21 31 -4 9 23 24 20 24 -4 0 -17 -7 -20 -50 -20 l-51 0 18 24
c18 24 28 25 28 4z m348 9 c9 -4 24 -9 32 -12 17 -5 21 -35 4 -35 -6 0 -17 -7
-25 -15 -21 -21 -34 -19 -34 5 0 15 -7 20 -27 20 -22 0 -25 2 -13 10 8 5 11
10 6 10 -5 0 -3 6 3 14 12 14 21 15 54 3z m129 -136 c27 -51 26 -57 -18 -66
-6 -2 -21 -6 -32 -9 -17 -6 -20 -1 -24 31 -4 28 0 42 14 54 10 9 18 21 18 28
0 24 16 9 42 -38z m-538 13 c10 -26 7 -34 -15 -34 -15 0 -19 4 -15 16 3 9 6
20 6 25 0 15 17 10 24 -7z m-34 -60 c0 -25 -7 -29 -28 -15 -11 7 -12 12 -1 29
16 25 29 19 29 -14z m150 11 c0 -8 9 -15 20 -15 18 0 20 -7 20 -60 l0 -60 -35
0 c-28 0 -35 4 -35 20 0 13 -7 20 -20 20 -17 0 -20 7 -20 40 0 33 3 40 20 40
11 0 20 7 20 15 0 8 7 15 15 15 8 0 15 -7 15 -15z m240 0 c0 -8 7 -15 15 -15
11 0 15 -11 15 -40 0 -29 -4 -40 -15 -40 -8 0 -15 -9 -15 -20 0 -17 -7 -20
-40 -20 l-40 0 0 60 c0 53 2 60 20 60 11 0 20 7 20 15 0 8 9 15 20 15 11 0 20
-7 20 -15z m-430 -142 c0 -23 -5 -33 -15 -33 -17 0 -18 12 -9 60 8 39 24 21
24 -27z m654 14 c10 -38 8 -51 -7 -38 -8 6 -16 8 -20 5 -9 -9 -47 15 -47 30 0
15 39 35 57 29 6 -2 14 -14 17 -26z m-1222 -55 c3 8 30 13 84 15 43 1 71 0 62
-3 -10 -3 -18 -10 -18 -16 0 -5 -6 -8 -14 -5 -16 7 -53 -42 -40 -52 5 -3 10
-17 12 -31 1 -13 7 -27 13 -31 8 -4 8 -9 -1 -14 -8 -5 2 -15 27 -30 27 -17 41
-21 50 -13 7 6 13 8 13 5 0 -3 15 -1 33 5 17 5 41 11 52 13 11 2 21 4 23 5 1
2 7 4 12 5 6 1 12 4 15 5 3 1 10 4 15 5 6 1 11 3 13 4 3 3 58 12 80 14 9 1 17
5 17 10 0 4 4 6 9 2 5 -3 12 -2 15 3 3 5 18 7 33 4 39 -6 73 -58 60 -95 -5
-15 -13 -27 -18 -27 -5 0 -9 -5 -9 -11 0 -11 -25 -39 -35 -39 -4 0 -24 -18
-45 -40 -21 -22 -43 -40 -49 -40 -6 0 -11 -5 -11 -10 0 -6 -11 -22 -25 -35
-30 -31 -65 -33 -65 -5 0 11 7 20 15 20 31 0 14 31 -33 58 -34 19 -52 15 -98
-23 -25 -20 -45 -31 -49 -25 -9 14 -55 12 -55 -2 0 -9 -3 -8 -9 2 -6 8 -8 17
-5 21 2 4 0 10 -6 14 -6 4 -8 11 -5 16 4 5 1 9 -5 9 -6 0 -9 4 -5 9 3 5 1 12
-5 16 -6 4 -8 11 -5 16 4 5 2 9 -4 9 -6 0 -8 7 -5 15 4 8 1 15 -6 15 -6 0 -8
5 -5 10 3 6 1 10 -5 10 -7 0 -10 5 -8 12 3 7 -12 55 -33 107 -25 66 -33 98
-26 103 7 4 19 0 28 -8 13 -12 18 -12 21 -2z m1163 -54 c20 -9 25 -17 21 -32
-3 -12 -6 -27 -6 -33 0 -7 -11 -20 -25 -29 -22 -14 -26 -14 -40 -1 -8 9 -15
20 -15 26 0 6 -7 11 -15 11 -8 0 -15 9 -15 20 0 13 7 20 20 20 11 0 20 7 20
15 0 18 20 19 55 3z m-515 -34 c0 -8 8 -15 18 -15 16 -1 16 -2 0 -6 -10 -2
-18 -10 -18 -18 0 -27 -34 -27 -57 0 -26 30 -31 60 -8 51 8 -3 15 -2 15 3 0 4
11 6 25 3 14 -2 25 -11 25 -18z m650 -4 c0 -5 7 -7 15 -4 8 4 15 1 15 -6 0 -7
7 -10 15 -6 8 3 15 1 15 -4 0 -5 7 -7 15 -4 8 4 15 1 15 -5 0 -6 7 -8 15 -5 8
4 15 1 15 -5 0 -6 7 -8 15 -5 8 4 15 2 15 -3 0 -5 8 -9 18 -10 61 -6 73 -10
78 -27 4 -10 0 -22 -7 -27 -18 -11 -29 -11 -29 1 0 5 -7 7 -15 4 -12 -5 -13
-10 -4 -20 8 -10 8 -14 0 -14 -15 0 -3 -60 17 -82 8 -10 20 -18 27 -18 6 0 23
-6 39 -12 21 -10 26 -18 23 -37 -3 -14 2 -35 10 -48 14 -22 14 -25 -6 -42 -11
-10 -21 -24 -21 -30 0 -6 -7 -14 -15 -17 -8 -4 -15 -12 -15 -20 0 -8 -5 -14
-11 -14 -5 0 -7 -4 -4 -10 3 -5 0 -10 -7 -10 -8 0 -20 -10 -28 -21 -8 -12 -25
-32 -37 -44 -12 -13 -19 -26 -16 -29 4 -3 -2 -6 -12 -6 -10 0 -16 -3 -12 -6 3
-3 -4 -16 -16 -29 l-22 -22 -15 28 c-8 15 -30 50 -47 78 -18 28 -29 51 -24 51
5 0 11 -6 14 -14 12 -29 107 18 107 54 0 5 5 10 10 10 6 0 10 16 10 36 0 30
-8 44 -53 87 -29 29 -65 61 -80 72 -15 11 -27 25 -27 32 0 7 -11 15 -25 19
-14 3 -25 11 -25 16 0 6 -13 22 -30 38 -16 15 -26 31 -22 35 4 3 7 10 7 13 1
18 32 52 46 52 9 0 24 9 34 20 19 21 35 26 35 10z m-252 -90 c24 0 19 -31 -10
-55 -24 -20 -33 -23 -45 -14 -9 9 -11 15 -3 23 5 5 10 28 10 50 l0 39 19 -21
c10 -12 23 -22 29 -22z m-300 -42 c14 -3 13 -6 -6 -17 -19 -10 -30 -10 -52 -1
-33 13 -31 31 6 50 13 7 25 20 26 29 1 9 3 -1 5 -21 3 -24 10 -38 21 -40z
m-30 -72 c16 -16 23 -66 10 -66 -6 0 -8 -7 -4 -15 3 -8 1 -15 -5 -15 -6 0 -9
-6 -6 -14 3 -8 3 -17 -1 -21 -4 -4 -8 -11 -8 -16 -1 -5 -3 -10 -4 -11 -1 -2
-3 -16 -5 -33 -1 -16 -4 -31 -5 -32 -3 -4 -5 -10 -14 -55 -8 -38 -34 -58 -47
-36 -5 7 -6 20 -3 29 3 12 -3 18 -21 21 -14 3 -28 1 -31 -4 -3 -4 -9 -6 -14
-3 -11 7 -50 -12 -49 -23 1 -4 -5 -22 -12 -40 -12 -28 -18 -33 -38 -29 -34 7
-51 -2 -62 -29 -4 -13 -14 -24 -20 -24 -7 0 -10 3 -6 6 7 8 -12 28 -35 37 -10
3 -18 13 -18 22 0 8 -6 15 -13 15 -8 0 -37 21 -65 48 -28 26 -69 63 -91 82
-22 19 -40 41 -41 48 0 18 30 27 40 12 11 -17 39 8 33 30 -4 16 57 64 66 53 4
-3 0 -8 -6 -10 -25 -9 -15 -64 17 -93 17 -15 30 -33 30 -39 0 -6 19 -11 45
-11 25 0 45 5 45 11 0 11 25 39 35 39 3 0 39 34 80 75 40 41 78 75 84 75 5 0
13 9 16 20 3 11 13 20 21 20 8 0 14 4 14 9 0 12 69 -15 88 -33z m449 -2 c13
-13 23 -27 23 -32 0 -6 11 -13 25 -16 14 -4 25 -11 25 -17 0 -10 45 -59 55
-59 12 0 53 -47 59 -68 6 -19 3 -22 -18 -22 -16 0 -26 6 -26 15 0 8 -4 15 -10
15 -5 0 -10 -6 -10 -13 0 -7 -9 -19 -20 -27 -21 -15 -26 -50 -10 -66 6 -6 19
-28 30 -49 19 -38 19 -38 0 -55 -11 -9 -17 -20 -14 -23 4 -3 4 -17 0 -30 -4
-17 -12 -24 -28 -23 -13 1 -29 -5 -37 -12 -7 -7 -20 -11 -27 -8 -8 3 -14 2
-14 -2 0 -10 -61 -33 -71 -26 -5 3 -9 1 -9 -3 0 -5 -10 -9 -22 -10 -11 -1 -25
-8 -29 -15 -5 -7 -9 -10 -9 -6 0 4 -22 -1 -50 -12 l-50 -20 1 33 c1 17 -1 56
-4 86 -2 29 -2 49 2 44 9 -15 48 -33 55 -26 3 3 18 8 33 9 15 2 29 8 31 13 2
5 9 8 16 5 7 -3 21 11 32 32 14 28 16 38 6 41 -6 3 -10 8 -7 13 3 4 -2 26 -10
49 -8 23 -12 41 -8 41 3 0 0 7 -7 15 -7 8 -9 15 -4 15 4 0 3 5 -3 11 -6 6 -9
18 -6 25 3 8 1 14 -4 14 -5 0 -9 8 -10 18 -5 55 -9 72 -17 72 -5 0 -7 3 -4 6
4 3 2 18 -2 34 -7 24 -4 31 13 43 34 22 107 18 134 -9z m-233 -47 c10 -9 14
-17 10 -17 -5 0 -3 -5 3 -11 6 -6 9 -18 6 -25 -3 -8 -1 -14 4 -14 5 0 9 -8 10
-17 5 -56 9 -73 17 -73 4 0 6 -7 2 -15 -3 -8 -1 -15 4 -15 5 0 7 -7 4 -15 -4
-8 -1 -15 6 -15 7 0 10 -7 6 -15 -3 -8 -2 -15 2 -15 4 0 8 -15 7 -32 0 -20 -5
-33 -12 -32 -31 2 -35 5 -29 20 5 13 1 15 -21 9 -53 -13 -64 -33 -62 -105 1
-44 -2 -64 -10 -62 -6 1 -11 -2 -11 -8 0 -5 -6 -7 -14 -4 -14 5 -32 -39 -22
-54 2 -4 -4 -8 -15 -8 -10 0 -19 4 -19 8 0 4 -3 7 -7 7 -5 -1 -10 -1 -13 1 -3
1 -16 4 -30 6 -13 2 -27 8 -30 12 -3 4 -14 7 -25 6 -11 0 -30 5 -42 13 -13 7
-23 11 -23 9 0 -3 -18 1 -39 9 -22 7 -42 11 -45 8 -3 -4 -6 -1 -6 6 0 7 -6 11
-14 8 -8 -3 -21 0 -30 6 -15 11 -15 16 4 54 11 23 20 48 20 55 1 16 24 48 35
48 4 0 3 -6 -3 -13 -14 -17 15 -61 43 -64 11 -2 35 -5 54 -8 36 -5 94 21 88
40 -2 5 2 29 9 52 7 24 10 43 7 43 -3 0 -1 6 4 13 6 6 9 22 8 35 -1 12 2 22 8
22 5 0 7 6 5 12 -3 7 1 23 8 36 7 14 10 31 7 38 -3 8 -1 14 4 14 5 0 9 10 8
23 -1 12 5 27 13 33 22 16 96 11 116 -9z"/>
<path d="M9750 1875 c0 -43 15 -75 35 -75 8 0 15 -4 15 -10 0 -12 -35 -31 -44
-23 -3 3 -6 -8 -6 -26 0 -34 19 -61 42 -61 11 0 48 -83 54 -122 1 -5 3 -11 4
-15 1 -5 2 -11 1 -15 0 -5 4 -8 10 -8 6 0 9 -6 6 -12 -2 -7 5 -35 16 -63 11
-27 19 -58 19 -67 0 -10 2 -18 6 -18 4 0 9 -11 10 -25 1 -22 -2 -25 -26 -25
-15 0 -47 -1 -72 -4 -25 -2 -51 -4 -57 -5 -7 -1 -13 -8 -13 -16 0 -11 12 -15
48 -15 42 0 48 -3 49 -22 2 -23 27 -48 48 -48 8 0 9 -12 1 -45 -6 -25 -13 -45
-17 -45 -3 0 -5 -11 -4 -25 2 -14 -1 -27 -6 -31 -5 -3 -7 -10 -4 -15 4 -5 2
-9 -3 -9 -5 0 -8 -10 -7 -22 1 -13 0 -27 -4 -33 -3 -5 -6 -14 -7 -20 -8 -44
-14 -68 -19 -86 -7 -20 -8 -20 -26 -3 -43 39 -48 29 -48 -82 0 -60 4 -104 9
-104 6 0 10 7 10 15 0 9 7 18 15 21 8 4 15 12 15 20 0 7 11 16 24 20 14 3 27
12 30 20 3 8 12 14 21 14 13 0 15 9 12 40 -2 23 0 40 6 40 6 0 8 3 4 6 -3 3 1
23 8 45 8 22 14 41 15 44 0 3 0 6 1 8 2 6 8 35 14 66 3 19 8 37 10 41 2 4 7
22 10 41 9 45 13 63 15 67 2 1 3 5 4 10 0 4 8 26 15 50 13 39 13 49 -5 100
-10 31 -18 60 -16 65 1 4 -2 7 -8 7 -5 0 -7 7 -4 15 4 8 2 15 -3 15 -5 0 -10
9 -11 20 -1 11 -3 29 -4 40 -1 11 -6 20 -11 20 -4 0 -5 5 -2 10 3 6 1 10 -5
10 -6 0 -9 4 -6 8 3 5 -4 32 -14 60 -11 29 -17 52 -12 52 4 0 2 4 -5 8 -16 10
-25 65 -12 73 17 10 0 77 -22 84 -10 4 -19 11 -19 16 0 5 -6 9 -13 9 -7 0 -25
11 -40 25 l-27 26 0 -36z"/>
<path d="M6870 1710 c0 -25 -4 -30 -25 -30 -21 0 -25 -5 -25 -30 0 -27 -3 -30
-30 -30 l-30 0 0 -60 0 -60 55 0 55 0 0 -385 0 -385 30 0 c27 0 30 3 30 30 0
25 4 30 25 30 21 0 25 5 25 30 0 27 3 30 30 30 27 0 30 3 30 30 0 25 4 30 25
30 l25 0 0 415 0 415 -110 0 -110 0 0 -30z"/>
<path d="M7740 1710 c0 -25 -4 -30 -25 -30 -21 0 -25 -5 -25 -30 0 -27 -3 -30
-30 -30 -25 0 -30 -4 -30 -25 0 -20 -5 -25 -25 -25 -21 0 -25 -5 -25 -30 0
-27 -3 -30 -30 -30 -27 0 -30 -3 -30 -30 0 -25 -4 -30 -25 -30 -21 0 -25 -5
-25 -30 0 -27 -3 -30 -30 -30 -27 0 -30 -3 -30 -30 0 -25 -4 -30 -25 -30 -21
0 -25 -5 -25 -29 0 -25 -4 -30 -27 -33 -22 -2 -29 -9 -31 -30 -3 -22 -9 -28
-28 -28 -20 0 -24 -5 -24 -30 0 -26 -4 -30 -28 -30 l-27 0 0 -120 0 -120 218
0 217 0 0 -245 c0 -273 -7 -252 73 -239 33 6 37 10 37 35 0 26 4 29 30 29 27
0 30 3 30 30 0 25 4 30 25 30 l25 0 0 210 0 210 30 0 c27 0 30 3 30 30 0 25 4
30 25 30 21 0 25 5 25 30 0 30 -1 30 -55 30 l-55 0 0 325 0 325 -55 0 c-54 0
-55 0 -55 -30z m-110 -475 l0 -145 -130 0 -130 0 0 30 c0 23 5 30 19 30 14 0
21 8 23 28 2 21 9 28 31 30 21 3 27 9 27 28 0 19 5 24 25 24 21 0 25 5 25 30
0 27 3 30 30 30 27 0 30 3 30 30 0 25 4 30 25 30 l25 0 0 -145z"/>
<path d="M80 1530 c0 -11 -7 -20 -15 -20 -8 0 -15 -7 -15 -15 0 -8 -9 -15 -20
-15 -16 0 -20 -7 -20 -35 0 -28 4 -35 20 -35 13 0 20 7 20 20 0 11 7 20 15 20
8 0 15 7 15 15 0 12 15 15 75 15 60 0 75 -3 75 -15 0 -8 7 -15 15 -15 12 0 15
-16 15 -85 l0 -85 -60 0 -60 0 0 -35 0 -35 60 0 60 0 0 -30 0 -30 -60 0 -60 0
0 -35 0 -35 60 0 60 0 0 -85 0 -85 35 0 35 0 0 285 0 285 25 0 25 0 0 -285 0
-285 35 0 c24 0 35 5 35 15 0 8 7 15 15 15 8 0 15 9 15 20 0 11 7 20 15 20 12
0 15 16 15 80 l0 80 80 0 c64 0 80 -3 80 -15 0 -8 5 -15 10 -15 6 0 10 -45 10
-115 0 -70 -4 -115 -10 -115 -5 0 -10 -6 -10 -14 0 -22 -34 -26 -257 -26 -183
0 -213 -2 -213 -15 0 -8 -7 -15 -15 -15 -8 0 -15 -7 -15 -15 0 -8 -7 -15 -15
-15 -10 0 -15 -11 -15 -35 0 -24 5 -35 15 -35 8 0 15 7 15 15 0 8 9 15 20 15
13 0 20 7 20 20 0 19 7 20 105 20 98 0 105 -1 105 -20 0 -11 7 -20 15 -20 8 0
15 -7 15 -15 0 -12 17 -15 90 -15 73 0 90 3 90 15 0 8 9 15 20 15 13 0 20 7
20 20 0 11 5 20 10 20 6 0 10 7 10 15 0 8 9 15 20 15 11 0 20 7 20 15 0 9 9
15 25 15 18 0 25 5 25 20 0 13 7 20 20 20 19 0 20 7 20 115 0 108 -1 115 -20
115 -13 0 -20 7 -20 20 0 11 -4 20 -10 20 -5 0 -10 7 -10 15 0 10 -11 15 -35
15 -24 0 -35 5 -35 15 0 8 9 15 20 15 11 0 20 7 20 15 0 8 7 15 15 15 8 0 15
9 15 20 0 11 5 20 10 20 6 0 10 40 10 100 0 60 -4 100 -10 100 -5 0 -10 7 -10
15 0 8 -7 15 -15 15 -8 0 -15 9 -15 20 0 19 -7 20 -110 20 -103 0 -110 -1
-110 -20 0 -11 -7 -20 -15 -20 -8 0 -15 -7 -15 -15 0 -10 -10 -15 -30 -15 -20
0 -30 5 -30 15 0 8 -7 15 -15 15 -8 0 -15 9 -15 20 0 16 -7 20 -30 20 -21 0
-30 -5 -30 -16 0 -9 -9 -18 -20 -21 -11 -3 -20 -12 -20 -19 0 -8 -7 -14 -15
-14 -8 0 -15 7 -15 15 0 8 -7 15 -15 15 -8 0 -15 9 -15 20 0 18 -7 20 -75 20
-68 0 -75 -2 -75 -20z m550 -64 c0 -7 9 -16 20 -19 18 -5 20 -14 20 -101 0
-89 -1 -96 -20 -96 -13 0 -20 -7 -20 -20 0 -18 -7 -20 -60 -20 l-60 0 0 120
c0 100 3 120 15 120 8 0 15 7 15 15 0 11 12 15 45 15 32 0 45 -4 45 -14z"/>
<path d="M3000 1530 c0 -11 -7 -20 -15 -20 -8 0 -15 -7 -15 -15 0 -8 -9 -15
-20 -15 -11 0 -20 -7 -20 -15 0 -8 -4 -15 -10 -15 -6 0 -10 -106 -10 -299 0
-322 2 -311 -51 -311 -14 0 -19 -7 -19 -30 0 -28 3 -30 35 -30 33 0 35 -2 35
-35 0 -35 0 -35 45 -35 33 0 45 4 45 15 0 8 7 15 15 15 8 0 15 9 15 20 0 11 7
20 15 20 8 0 15 7 15 15 0 8 7 15 15 15 8 0 15 9 15 20 0 16 -5 19 -30 14
l-30 -7 0 357 c0 310 -2 356 -15 356 -8 0 -15 -9 -15 -20z"/>
<path d="M3340 1530 c0 -16 -7 -20 -35 -20 -24 0 -35 -5 -35 -15 0 -8 -7 -15
-15 -15 -10 0 -15 -11 -15 -35 0 -19 -4 -35 -10 -35 -6 0 -10 -45 -10 -115 0
-70 4 -115 10 -115 6 0 10 -9 10 -20 0 -16 7 -20 30 -20 20 0 30 -5 30 -15 0
-10 10 -15 30 -15 20 0 30 -5 30 -15 0 -10 11 -15 35 -15 28 0 35 -4 35 -20 0
-16 7 -20 30 -20 20 0 30 -5 30 -15 0 -10 10 -15 30 -15 20 0 30 -5 30 -15 0
-10 10 -15 30 -15 23 0 30 -4 30 -20 0 -16 7 -20 35 -20 35 0 35 0 35 -45 0
-35 -4 -45 -16 -45 -9 0 -18 -9 -21 -20 -8 -29 -63 -29 -63 0 0 17 -4 19 -26
14 -20 -5 -26 -2 -31 15 -3 14 -13 21 -29 21 -15 0 -24 6 -24 15 0 10 -11 15
-35 15 -28 0 -35 4 -35 20 0 18 -7 20 -65 20 -58 0 -65 -2 -65 -20 0 -11 -7
-20 -15 -20 -8 0 -15 -7 -15 -15 0 -8 -4 -15 -10 -15 -5 0 -10 -7 -10 -15 0
-8 -9 -15 -20 -15 -13 0 -20 -7 -20 -20 0 -11 -7 -20 -15 -20 -8 0 -15 -7 -15
-15 0 -8 -6 -15 -14 -15 -10 0 -14 -10 -13 -35 2 -33 27 -52 27 -20 0 8 6 15
14 15 7 0 16 9 19 20 3 11 12 20 21 20 9 0 16 7 16 15 0 11 11 15 40 15 29 0
40 -4 40 -15 0 -10 10 -15 30 -15 23 0 30 -4 30 -20 0 -16 7 -20 35 -20 24 0
35 -5 35 -15 0 -12 17 -15 90 -15 73 0 90 3 90 15 0 10 11 15 35 15 28 0 35 4
35 20 0 11 5 20 10 20 6 0 10 7 10 15 0 8 9 15 20 15 11 0 20 7 20 15 0 8 7
15 15 15 10 0 15 11 15 35 0 24 5 35 15 35 12 0 15 18 15 100 0 82 -3 100 -15
100 -8 0 -15 9 -15 20 0 16 -7 20 -35 20 -24 0 -35 5 -35 15 0 9 -9 15 -25 15
-16 0 -25 6 -25 15 0 10 -11 15 -35 15 -28 0 -35 4 -35 20 0 16 -7 20 -30 20
-20 0 -30 5 -30 15 0 9 -9 15 -25 15 -16 0 -25 6 -25 15 0 10 -11 15 -35 15
-28 0 -35 4 -35 20 0 13 -7 20 -20 20 -11 0 -20 7 -20 15 0 8 -4 15 -10 15 -5
0 -10 16 -10 35 0 35 0 35 45 35 38 0 45 -3 45 -20 0 -16 7 -20 30 -20 20 0
30 -5 30 -15 0 -10 10 -15 30 -15 20 0 30 -5 30 -15 0 -12 14 -15 65 -15 51 0
65 3 65 15 0 8 5 15 10 15 6 0 10 7 10 15 0 8 9 15 20 15 13 0 20 7 20 20 0
11 7 20 15 20 8 0 15 7 15 15 0 8 7 15 15 15 10 0 15 11 15 35 0 39 -24 50
-33 15 -3 -11 -12 -20 -21 -20 -9 0 -16 -7 -16 -15 0 -12 -13 -15 -60 -15 -47
0 -60 3 -60 15 0 9 -9 15 -25 15 -18 0 -25 5 -25 20 0 19 -7 20 -110 20 -103
0 -110 -1 -110 -20z m20 -300 c0 -16 7 -20 35 -20 24 0 35 -5 35 -15 0 -10 10
-15 30 -15 23 0 30 -4 30 -20 0 -16 7 -20 30 -20 20 0 30 -5 30 -15 0 -10 10
-15 30 -15 20 0 30 -5 30 -15 0 -10 11 -15 35 -15 28 0 35 -4 35 -20 0 -15 7
-20 25 -20 21 0 25 -5 25 -30 0 -28 -2 -30 -40 -30 -29 0 -40 4 -40 15 0 10
-11 15 -35 15 -28 0 -35 4 -35 20 0 16 -7 20 -30 20 -20 0 -30 5 -30 15 0 9
-9 15 -25 15 -16 0 -25 6 -25 15 0 10 -11 15 -35 15 -28 0 -35 4 -35 20 0 16
-7 20 -30 20 -20 0 -30 5 -30 15 0 10 -10 15 -29 15 -28 0 -41 14 -41 45 0 15
19 22 63 24 21 1 27 -4 27 -19z"/>
<path d="M5210 1445 l0 -65 65 0 65 0 0 65 0 65 -65 0 -65 0 0 -65z"/>
<path d="M9750 1416 c0 -56 4 -75 15 -80 10 -3 20 5 30 24 10 20 12 30 4 30
-6 0 -9 7 -6 15 4 8 2 17 -4 20 -5 4 -7 11 -4 16 4 5 1 9 -5 9 -7 0 -10 6 -7
14 3 8 -1 17 -9 20 -11 4 -14 -8 -14 -68z"/>
<path d="M4020 1465 c0 -8 -9 -15 -20 -15 -13 0 -20 -7 -20 -20 0 -11 -7 -20
-15 -20 -8 0 -15 -7 -15 -15 0 -8 -7 -15 -15 -15 -11 0 -15 -12 -15 -50 0 -49
-1 -50 -30 -50 -28 0 -30 -3 -30 -35 0 -32 2 -35 30 -35 l30 0 0 -179 c0 -171
-1 -180 -20 -186 -11 -3 -24 -3 -30 0 -6 4 -10 -8 -10 -29 l0 -36 60 0 60 0 0
-35 c0 -35 0 -35 45 -35 33 0 45 4 45 15 0 8 9 15 20 15 13 0 20 7 20 20 0 11
7 20 15 20 8 0 15 7 15 15 0 8 7 15 16 15 9 0 14 7 12 17 -3 14 -14 18 -63 18
l-60 0 -3 183 -2 182 64 0 65 0 -2 35 -2 35 -62 0 -63 0 0 100 c0 60 -4 100
-10 100 -5 0 -10 -7 -10 -15z"/>
<path d="M4930 1465 c0 -8 -4 -15 -10 -15 -5 0 -10 -7 -10 -16 0 -9 -9 -18
-20 -21 -11 -3 -20 -12 -20 -19 0 -8 -7 -14 -15 -14 -11 0 -15 -12 -15 -50 0
-49 -1 -50 -30 -50 -28 0 -30 -3 -30 -35 0 -32 2 -35 30 -35 l30 0 0 -180 c0
-153 -2 -180 -15 -181 -8 -1 -21 -2 -27 -3 -7 0 -14 -16 -16 -33 l-3 -33 65 0
66 0 0 -35 c0 -35 0 -35 45 -35 33 0 45 4 45 15 0 8 7 15 15 15 8 0 15 9 15
20 0 11 7 20 15 20 8 0 15 7 15 15 0 8 7 15 15 15 8 0 15 9 15 19 0 17 -6 19
-60 14 l-60 -6 0 187 0 186 60 0 60 0 0 35 0 35 -60 0 -60 0 0 100 c0 93 -1
100 -20 100 -11 0 -20 -7 -20 -15z"/>
<path d="M1060 1265 c0 -8 -7 -15 -15 -15 -8 0 -15 -9 -15 -20 0 -11 -7 -20
-15 -20 -8 0 -15 -7 -15 -15 0 -8 -7 -15 -15 -15 -8 0 -15 -7 -15 -15 0 -8 -7
-15 -15 -15 -12 0 -15 -26 -17 -152 l-3 -153 -27 -3 c-24 -3 -28 -8 -28 -33 0
-28 2 -29 45 -29 38 0 45 -3 45 -20 0 -11 7 -20 15 -20 8 0 15 -7 15 -15 0
-12 15 -15 75 -15 60 0 75 3 75 15 0 8 9 15 20 15 13 0 20 7 20 20 0 11 7 20
15 20 8 0 15 7 15 15 0 8 5 15 10 15 6 0 10 7 10 15 0 8 9 15 20 15 13 0 20 7
20 20 0 11 7 20 15 20 13 0 15 21 15 130 l0 130 30 0 c28 0 30 3 30 35 0 35 0
35 -45 35 -38 0 -45 3 -45 20 0 13 -7 20 -20 20 -11 0 -20 7 -20 15 0 12 -17
15 -90 15 -73 0 -90 -3 -90 -15z m60 -70 c0 -8 7 -15 15 -15 8 0 15 -9 15 -20
0 -11 7 -20 15 -20 22 0 26 -32 23 -170 l-3 -125 -60 0 -60 0 -3 183 -2 182
30 0 c20 0 30 -5 30 -15z"/>
<path d="M1490 1265 c0 -8 -7 -15 -15 -15 -8 0 -15 -7 -15 -15 0 -9 -7 -18
-15 -21 -9 -4 -15 -19 -15 -40 0 -31 3 -34 30 -34 l30 0 0 -150 0 -150 -30 0
c-27 0 -30 -3 -30 -30 0 -27 3 -30 30 -30 28 0 30 -3 30 -35 0 -35 0 -35 45
-35 33 0 45 4 45 15 0 8 9 15 20 15 13 0 20 7 20 20 0 11 7 20 15 20 10 0 15
10 15 30 0 19 -5 30 -14 30 -20 0 -26 46 -26 197 0 126 1 135 20 140 11 3 20
12 20 19 0 8 7 14 15 14 8 0 15 -7 15 -15 0 -8 4 -15 9 -15 5 0 11 -9 14 -20
4 -16 14 -20 51 -20 l46 0 0 55 c0 42 -3 55 -15 55 -8 0 -15 7 -15 15 0 12
-16 15 -80 15 -64 0 -80 -3 -80 -15 0 -8 -7 -15 -15 -15 -8 0 -15 -9 -15 -20
0 -11 -4 -20 -10 -20 -5 0 -10 16 -10 35 0 33 -2 35 -35 35 -24 0 -35 -5 -35
-15z"/>
<path d="M2010 1265 c0 -8 -4 -15 -10 -15 -5 0 -10 -7 -10 -16 0 -9 -9 -18
-20 -21 -11 -3 -20 -12 -20 -19 0 -8 -7 -14 -15 -14 -8 0 -15 -7 -15 -15 0 -8
-4 -15 -10 -15 -6 0 -11 -62 -12 -152 l-3 -153 -32 -3 c-29 -3 -33 -7 -33 -33
0 -28 2 -29 45 -29 38 0 45 -3 45 -20 0 -11 7 -20 15 -20 8 0 15 -7 15 -15 0
-11 12 -15 45 -15 33 0 45 4 45 15 0 8 9 15 20 15 13 0 20 7 20 20 0 11 7 20
15 20 8 0 15 7 15 15 0 8 7 15 15 15 8 0 15 7 15 15 0 12 -14 15 -65 15 l-65
0 0 85 0 85 80 0 80 0 0 35 0 35 -80 0 -80 0 0 50 c0 38 4 50 15 50 8 0 15 7
15 15 0 8 9 15 20 15 11 0 20 -7 20 -15 0 -8 7 -15 15 -15 8 0 15 -9 15 -20 0
-11 5 -20 10 -20 6 0 10 -7 10 -15 0 -8 9 -15 20 -15 11 0 20 -7 20 -15 0 -10
11 -15 35 -15 l35 0 0 65 c0 58 -2 65 -20 65 -13 0 -20 7 -20 20 0 11 -7 20
-15 20 -8 0 -15 7 -15 15 0 12 -16 15 -80 15 -64 0 -80 -3 -80 -15z"/>
<path d="M2470 1265 c0 -8 -4 -15 -10 -15 -5 0 -10 -9 -10 -20 0 -13 -7 -20
-20 -20 -11 0 -20 -7 -20 -15 0 -8 -7 -15 -15 -15 -8 0 -15 -7 -15 -15 0 -8
-7 -15 -15 -15 -13 0 -15 -24 -15 -155 l0 -155 -30 0 c-27 0 -30 -3 -30 -30 0
-29 2 -30 45 -30 38 0 45 -3 45 -20 0 -11 7 -20 15 -20 8 0 15 -7 15 -15 0
-12 14 -15 65 -15 51 0 65 3 65 15 0 8 7 15 15 15 8 0 15 9 15 20 0 16 7 20
30 20 28 0 30 -3 30 -35 0 -35 0 -35 45 -35 33 0 45 4 45 15 0 8 9 15 20 15
13 0 20 7 20 20 0 11 7 20 15 20 10 0 15 10 15 29 0 26 -4 30 -32 33 l-33 3
-3 148 -3 147 36 0 c33 0 35 2 35 35 l0 35 -50 0 c-43 0 -50 3 -50 20 0 11 -7
20 -15 20 -8 0 -15 7 -15 15 0 12 -17 15 -95 15 -78 0 -95 -3 -95 -15z m128
-237 l-3 -183 -60 0 -60 0 -3 183 -2 182 65 0 65 0 -2 -182z"/>
<path d="M4410 1265 c0 -8 -7 -15 -15 -15 -8 0 -15 -9 -15 -20 0 -11 -7 -20
-15 -20 -8 0 -15 -7 -15 -15 0 -8 -7 -15 -15 -15 -8 0 -15 -7 -15 -15 0 -8 -7
-15 -15 -15 -12 0 -15 -26 -17 -152 l-3 -153 -27 -3 c-24 -3 -28 -8 -28 -33 0
-28 2 -29 45 -29 38 0 45 -3 45 -20 0 -11 7 -20 15 -20 8 0 15 -7 15 -15 0
-12 13 -15 60 -15 47 0 60 3 60 15 0 8 6 15 14 15 7 0 16 9 19 20 4 15 14 20
36 20 29 0 31 -3 31 -35 0 -35 0 -35 45 -35 33 0 45 4 45 15 0 8 9 15 20 15
13 0 20 7 20 20 0 11 5 20 10 20 6 0 10 13 10 29 0 25 -4 30 -27 33 l-28 3 -3
148 -3 147 31 0 c28 0 30 3 30 35 0 35 0 35 -45 35 -38 0 -45 3 -45 20 0 13
-7 20 -20 20 -11 0 -20 7 -20 15 0 12 -17 15 -90 15 -73 0 -90 -3 -90 -15z
m125 -77 c3 -13 4 -95 3 -183 l-3 -160 -60 0 -60 0 -3 183 -2 182 60 0 c54 0
60 -2 65 -22z"/>
<path d="M5250 1265 c0 -8 -9 -15 -20 -15 -13 0 -20 -7 -20 -20 0 -16 -7 -20
-30 -20 -28 0 -30 -3 -30 -35 0 -32 2 -35 30 -35 l30 0 0 -145 0 -145 -30 -6
c-25 -5 -30 -11 -30 -35 0 -26 4 -29 30 -29 28 0 30 -3 30 -35 l0 -35 50 0
c38 0 50 4 50 15 0 8 7 15 15 15 8 0 15 9 15 20 0 11 7 20 15 20 8 0 15 7 15
15 0 8 5 15 10 15 6 0 10 9 10 20 0 17 -5 19 -25 14 l-25 -6 0 151 0 151 25 0
c22 0 25 4 25 35 0 31 -3 35 -25 35 -18 0 -25 5 -25 20 0 11 -7 20 -15 20 -8
0 -15 7 -15 15 0 10 -10 15 -30 15 -20 0 -30 -5 -30 -15z"/>
<path d="M5640 1265 c0 -8 -7 -15 -15 -15 -8 0 -15 -9 -15 -20 0 -11 -7 -20
-15 -20 -8 0 -15 -7 -15 -15 0 -8 -7 -15 -15 -15 -8 0 -15 -7 -15 -15 0 -8 -7
-15 -15 -15 -12 0 -15 -26 -17 -152 l-3 -153 -27 -3 c-24 -3 -28 -8 -28 -33 0
-28 2 -29 45 -29 38 0 45 -3 45 -20 0 -11 7 -20 15 -20 8 0 15 -7 15 -15 0
-12 15 -15 75 -15 60 0 75 3 75 15 0 8 9 15 20 15 13 0 20 7 20 20 0 11 7 20
15 20 8 0 15 7 15 15 0 8 5 15 10 15 6 0 10 7 10 15 0 8 9 15 20 15 13 0 20 7
20 20 0 11 7 20 15 20 13 0 15 21 15 130 l0 130 30 0 c28 0 30 3 30 35 0 35 0
35 -45 35 -38 0 -45 3 -45 20 0 13 -7 20 -20 20 -11 0 -20 7 -20 15 0 12 -17
15 -90 15 -73 0 -90 -3 -90 -15z m70 -70 c0 -8 5 -15 10 -15 6 0 10 -9 10 -20
0 -11 7 -20 15 -20 22 0 26 -32 23 -170 l-3 -125 -60 0 -60 0 -3 183 -2 182
35 0 c24 0 35 -5 35 -15z"/>
<path d="M6070 1265 c0 -8 -7 -15 -15 -15 -8 0 -15 -9 -15 -20 0 -11 -7 -20
-15 -20 -10 0 -15 -11 -15 -35 0 -32 2 -35 30 -35 l30 0 0 -150 0 -150 -30 0
c-27 0 -30 -3 -30 -30 0 -27 3 -30 30 -30 28 0 30 -3 30 -35 0 -35 0 -35 45
-35 33 0 45 4 45 15 0 8 9 15 20 15 13 0 20 7 20 20 0 11 7 20 15 20 10 0 15
10 15 30 0 19 -5 30 -14 30 -21 0 -26 33 -26 173 l0 127 65 0 66 0 -3 -147 -3
-148 -27 -3 c-23 -3 -28 -8 -28 -32 0 -24 5 -29 28 -32 22 -2 28 -8 30 -35 3
-32 5 -33 48 -33 32 0 44 4 44 15 0 8 7 15 15 15 8 0 15 7 15 16 0 9 9 18 20
21 11 3 20 12 20 19 0 8 5 14 10 14 24 0 8 29 -17 32 l-28 3 -3 148 -3 147 31
0 c28 0 30 3 30 35 0 31 -3 35 -26 35 -17 0 -28 6 -31 20 -3 11 -12 20 -19 20
-8 0 -14 7 -14 15 0 12 -14 15 -65 15 -51 0 -65 -3 -65 -15 0 -8 -4 -15 -10
-15 -5 0 -10 -9 -10 -20 0 -15 -7 -20 -29 -20 -20 0 -30 6 -34 20 -3 11 -12
20 -21 20 -9 0 -16 7 -16 15 0 11 -12 15 -45 15 -33 0 -45 -4 -45 -15z"/>
<path d="M127 542 c-22 -25 -21 -75 1 -95 17 -16 283 -17 3619 -17 3475 0
3600 1 3616 18 22 25 21 75 -1 95 -17 16 -283 17 -3619 17 -3475 0 -3600 -1
-3616 -18z m7208 -47 c0 -20 -8 -20 -3589 -23 -2215 -1 -3594 2 -3599 7 -5 5
-7 17 -4 25 6 15 343 16 3599 14 3585 -3 3593 -3 3593 -23z"/>
</g>
</svg>
